HIERARCHY
ROOT hip
{
  OFFSET 29.9448 46.3198 27.6665
  CHANNELS 6 Xposition Yposition Zposition Zrotation Xrotation Yrotation
  JOINT abdomen
  {
    OFFSET 0 20.6881 -0.73152
    CHANNELS 3 Zrotation Xrotation Yrotation
    JOINT chest
    {
      OFFSET 0 11.7043 -0.48768
      CHANNELS 3 Zrotation Xrotation Yrotation
      JOINT neck
      {
        OFFSET 0 22.1894 -2.19456
        CHANNELS 3 Zrotation Xrotation Yrotation
        JOINT head
        {
          OFFSET -0.24384 7.07133 1.2192
          CHANNELS 3 Zrotation Xrotation Yrotation
          JOINT leftEye
          {
            OFFSET 4.14528 8.04674 8.04672
            CHANNELS 3 Zrotation Xrotation Yrotation
            End Site
            {
              OFFSET 1 0 0
            }
          }
          JOINT rightEye
          {
            OFFSET -3.6576 8.04674 8.04672
            CHANNELS 3 Zrotation Xrotation Yrotation
            End Site
            {
              OFFSET 1 0 0
            }
          }
        }
      }
      JOINT rCollar
      {
        OFFSET -2.68224 19.2634 -4.8768
        CHANNELS 3 Zrotation Xrotation Yrotation
        JOINT rShldr
        {
          OFFSET -8.77824 -1.95073 1.46304
          CHANNELS 3 Zrotation Xrotation Yrotation
          JOINT rForeArm
          {
            OFFSET -28.1742 -1.7115 0.48768
            CHANNELS 3 Zrotation Xrotation Yrotation
            JOINT rHand
            {
              OFFSET -22.5879 0.773209 7.07136
              CHANNELS 3 Zrotation Xrotation Yrotation
              JOINT rThumb1
              {
                OFFSET -1.2192 -0.487915 3.41376
                CHANNELS 3 Zrotation Xrotation Yrotation
                JOINT rThumb2
                {
                  OFFSET -3.37035 -0.52449 3.41376
                  CHANNELS 3 Zrotation Xrotation Yrotation
                  End Site
                  {
                    OFFSET -1.78271 -1.18214 1.43049
                  }
                }
              }
              JOINT rIndex1
              {
                OFFSET -7.75947 0.938293 5.60832
                CHANNELS 3 Zrotation Xrotation Yrotation
                JOINT rIndex2
                {
                  OFFSET -2.54057 -0.884171 1.56538
                  CHANNELS 3 Zrotation Xrotation Yrotation
                  End Site
                  {
                    OFFSET -1.62519 -0.234802 1.16502
                  }
                }
              }
              JOINT rMid1
              {
                OFFSET -8.24714 1.18213 3.41376
                CHANNELS 3 Zrotation Xrotation Yrotation
                JOINT rMid2
                {
                  OFFSET -3.10165 -0.590103 1.0647
                  CHANNELS 3 Zrotation Xrotation Yrotation
                  End Site
                  {
                    OFFSET -2.48547 -0.328903 0.83742
                  }
                }
              }
              JOINT rRing1
              {
                OFFSET -8.82822 0.546677 1.51678
                CHANNELS 3 Zrotation Xrotation Yrotation
                JOINT rRing2
                {
                  OFFSET -2.60934 -0.819778 -0.0198488
                  CHANNELS 3 Zrotation Xrotation Yrotation
                  End Site
                  {
                    OFFSET -2.33842 -0.294052 0.168128
                  }
                }
              }
              JOINT rPinky1
              {
                OFFSET -8.27202 -0.0477905 -0.4584
                CHANNELS 3 Zrotation Xrotation Yrotation
                JOINT rPinky2
                {
                  OFFSET -1.82734 -0.647385 -0.700984
                  CHANNELS 3 Zrotation Xrotation Yrotation
                  End Site
                  {
                    OFFSET -1.69225 -0.51767 -0.607171
                  }
                }
              }
            }
          }
        }
      }
      JOINT lCollar
      {
        OFFSET 2.68224 19.2634 -4.8768
        CHANNELS 3 Zrotation Xrotation Yrotation
        JOINT lShldr
        {
          OFFSET 8.77824 -1.95073 1.46304
          CHANNELS 3 Zrotation Xrotation Yrotation
          JOINT lForeArm
          {
            OFFSET 28.1742 -1.7115 0.48768
            CHANNELS 3 Zrotation Xrotation Yrotation
            JOINT lHand
            {
              OFFSET 22.5879 0.773209 7.07136
              CHANNELS 3 Zrotation Xrotation Yrotation
              JOINT lThumb1
              {
                OFFSET 1.2192 -0.487915 3.41376
                CHANNELS 3 Zrotation Xrotation Yrotation
                JOINT lThumb2
                {
                  OFFSET 3.37035 -0.52449 3.41376
                  CHANNELS 3 Zrotation Xrotation Yrotation
                  End Site
                  {
                    OFFSET 1.78271 -1.18214 1.43049
                  }
                }
              }
              JOINT lIndex1
              {
                OFFSET 7.75947 0.938293 5.60832
                CHANNELS 3 Zrotation Xrotation Yrotation
                JOINT lIndex2
                {
                  OFFSET 2.54057 -0.884171 1.56538
                  CHANNELS 3 Zrotation Xrotation Yrotation
                  End Site
                  {
                    OFFSET 1.62519 -0.234802 1.16502
                  }
                }
              }
              JOINT lMid1
              {
                OFFSET 8.24714 1.18213 3.41376
                CHANNELS 3 Zrotation Xrotation Yrotation
                JOINT lMid2
                {
                  OFFSET 3.10165 -0.590103 1.0647
                  CHANNELS 3 Zrotation Xrotation Yrotation
                  End Site
                  {
                    OFFSET 2.48547 -0.328903 0.83742
                  }
                }
              }
              JOINT lRing1
              {
                OFFSET 8.82822 0.546677 1.51678
                CHANNELS 3 Zrotation Xrotation Yrotation
                JOINT lRing2
                {
                  OFFSET 2.60934 -0.819778 -0.0198488
                  CHANNELS 3 Zrotation Xrotation Yrotation
                  End Site
                  {
                    OFFSET 2.33842 -0.294052 0.168128
                  }
                }
              }
              JOINT lPinky1
              {
                OFFSET 8.27202 -0.0477905 -0.4584
                CHANNELS 3 Zrotation Xrotation Yrotation
                JOINT lPinky2
                {
                  OFFSET 1.82734 -0.647385 -0.700984
                  CHANNELS 3 Zrotation Xrotation Yrotation
                  End Site
                  {
                    OFFSET 1.69225 -0.51767 -0.607171
                  }
                }
              }
            }
          }
        }
      }
    }
  }
  JOINT rButtock
  {
    OFFSET -8.77824 4.35084 1.2192
    CHANNELS 3 Zrotation Xrotation Yrotation
    JOINT rThigh
    {
      OFFSET 0 -1.70687 -2.19456
      CHANNELS 3 Zrotation Xrotation Yrotation
      JOINT rShin
      {
        OFFSET 0 -36.8199 0.73152
        CHANNELS 3 Zrotation Xrotation Yrotation
        JOINT rFoot
        {
          OFFSET 0.73152 -45.1104 -5.12064
          CHANNELS 3 Zrotation Xrotation Yrotation
          End Site
          {
            OFFSET -1.1221 -3.69964 12.103
          }
        }
      }
    }
  }
  JOINT lButtock
  {
    OFFSET 8.77824 4.35084 1.2192
    CHANNELS 3 Zrotation Xrotation Yrotation
    JOINT lThigh
    {
      OFFSET 0 -1.70687 -2.19456
      CHANNELS 3 Zrotation Xrotation Yrotation
      JOINT lShin
      {
        OFFSET 0 -36.8199 0.73152
        CHANNELS 3 Zrotation Xrotation Yrotation
        JOINT lFoot
        {
          OFFSET -0.73152 -45.1104 -5.12064
          CHANNELS 3 Zrotation Xrotation Yrotation
          End Site
          {
            OFFSET 1.1221 -3.69964 12.103
          }
        }
      }
    }
  }
}
MOTION
Frames:	6
Frame Time:	0.00833333
30.923 46.3502 27.6986 24.7476 -2.23367 94.0313 -4.56609 47.3236 2.10677 -0.283056 -3.198 -1.06512 -9.48449 6.59414 -7.43987 31.0908 18.3725 -22.5201 -0 0 0 -0 0 0 -1.67533e-013 4.15335e-012 1.0201e-013 51.0866 33.2815 46.6019 -19.2056 -12.0443 36.7848 -0.681335 22.7713 3.38216 3.04981e-009 -1.45762e-009 1.47618e-009 5.29654e-009 -2.53453e-009 2.49109e-009 3.04982e-009 -1.45763e-009 1.47616e-009 7.73091 5.47488 0.417314 3.04981e-009 -1.45763e-009 1.47617e-009 2.90554 0.965183 0.102902 3.04982e-009 -1.45763e-009 1.47617e-009 10.2786 0.731801 0.0259123 3.0498e-009 -1.45762e-009 1.47618e-009 2.22167 -0.733487 -0.20892 -1.6765e-013 4.15335e-012 1.01782e-013 -36.5762 35.5594 -54.316 17.4125 -10.0688 -32.7148 1.04149 27.6755 -4.22696 -1.61409e-009 -1.5593e-009 -4.52915e-010 -2.79939e-009 -2.70321e-009 -7.44297e-010 -1.61409e-009 -1.55927e-009 -4.52908e-010 -7.73091 5.47488 -0.417314 -1.61409e-009 -1.55929e-009 -4.52914e-010 -2.90554 0.965183 -0.102902 -1.6141e-009 -1.55929e-009 -4.52915e-010 -10.2786 0.731801 -0.0259123 -1.61409e-009 -1.55929e-009 -4.52925e-010 -2.22167 -0.733487 0.20892 -2.03217e-016 0 -3.88251e-019 -24.3142 -41.0132 -14.3963 -0.867571 64.9684 3.49 2.87819 5.38975 -2.75104 2.03217e-016 0 3.88251e-019 16.5956 -39.3457 7.46533 0.661211 60.149 -2.95002 -3.29472 6.50628 6.62453 
30.928 46.3686 27.7658 24.7773 -2.39104 93.9194 -4.62603 47.3794 2.18749 -0.267841 -3.30354 -1.04509 -9.54376 6.68917 -7.50551 31.1677 18.3017 -22.6437 -0 0 0 -0 0 0 -1.55928e-013 5.02434e-012 1.03119e-014 51.2391 33.2025 46.3034 -19.2104 -12.0499 36.7961 -0.691261 22.9258 3.40777 2.65377e-009 -1.26126e-009 1.48643e-009 4.61168e-009 -2.19406e-009 2.51643e-009 2.65378e-009 -1.26126e-009 1.48641e-009 7.73091 5.47488 0.417314 2.65377e-009 -1.26126e-009 1.48643e-009 2.90554 0.965183 0.102902 2.65378e-009 -1.26126e-009 1.48643e-009 10.2786 0.731801 0.0259123 2.65376e-009 -1.26126e-009 1.48644e-009 2.22167 -0.733487 -0.20892 -1.56072e-013 5.02434e-012 1.00355e-014 -36.6688 35.653 -54.5113 17.3416 -9.99616 -32.5587 1.06585 27.9654 -4.27919 -1.25547e-009 -1.28546e-009 -3.33728e-011 -2.17038e-009 -2.22387e-009 -2.81968e-011 -1.25547e-009 -1.28545e-009 -3.3363e-011 -7.73091 5.47488 -0.417314 -1.25547e-009 -1.28546e-009 -3.33744e-011 -2.90554 0.965183 -0.102902 -1.25548e-009 -1.28546e-009 -3.33744e-011 -10.2786 0.731801 -0.0259123 -1.25547e-009 -1.28546e-009 -3.33825e-011 -2.22167 -0.733487 0.20892 -2.03217e-016 0 -3.88251e-019 -24.531 -40.9259 -14.445 -0.870439 64.9636 3.48913 2.89364 5.37353 -2.87845 2.03217e-016 0 3.88251e-019 16.2987 -39.3224 7.33475 0.656769 60.0781 -2.94524 -3.27449 6.60654 6.4372 
30.9545 46.3531 27.8171 24.8101 -2.5617 93.8052 -4.71387 47.4363 2.25358 -0.211575 -3.38993 -1.03237 -9.62832 6.75644 -7.56579 31.201 18.2345 -22.7318 -0 0 0 -0 0 0 -1.35256e-013 5.71578e-012 -9.27292e-014 51.2983 33.1465 46.0679 -19.2159 -12.0565 36.809 -0.698977 23.0455 3.42763 2.18536e-009 -1.01152e-009 1.47602e-009 3.80144e-009 -1.76087e-009 2.5076e-009 2.18537e-009 -1.01151e-009 1.476e-009 7.73091 5.47488 0.417314 2.18536e-009 -1.01151e-009 1.47601e-009 2.90554 0.965183 0.102902 2.18538e-009 -1.01151e-009 1.47602e-009 10.2786 0.731801 0.0259123 2.18536e-009 -1.01152e-009 1.47603e-009 2.22167 -0.733487 -0.20892 -1.35422e-013 5.71578e-012 -9.30526e-014 -36.8212 35.7056 -54.6804 17.2735 -9.92652 -32.4095 1.09322 28.2846 -4.33708 -8.76189e-010 -9.81946e-010 3.99561e-010 -1.50531e-009 -1.69292e-009 7.1055e-010 -8.76193e-010 -9.81941e-010 3.99573e-010 -7.73091 5.47488 -0.417314 -8.76188e-010 -9.81947e-010 3.99556e-010 -2.90554 0.965183 -0.102902 -8.76197e-010 -9.81945e-010 3.99558e-010 -10.2786 0.731801 -0.0259123 -8.76188e-010 -9.81943e-010 3.99551e-010 -2.22167 -0.733487 0.20892 -2.03217e-016 0 -3.88251e-019 -24.7698 -40.8422 -14.4849 -0.873738 64.9609 3.48911 2.91093 5.35096 -3.01579 2.03217e-016 0 3.88251e-019 15.9888 -39.2949 7.22199 0.652883 60.0056 -2.94094 -3.25535 6.69767 6.26567 
30.955 46.3587 27.793 24.8305 -2.64786 93.7358 -4.74294 47.4689 2.25026 -0.120298 -3.41905 -1.03306 -9.74298 6.75007 -7.59183 31.1702 18.2077 -22.7273 -0 0 0 -0 0 0 -1.14619e-013 5.97665e-012 -1.65588e-013 51.1889 33.1674 46.0324 -19.2102 -12.0499 36.7956 -0.704281 23.1268 3.44116 1.71164e-009 -7.41724e-010 1.42894e-009 2.98166e-009 -1.29269e-009 2.43561e-009 1.71165e-009 -7.41719e-010 1.42892e-009 7.73091 5.47488 0.417314 1.71164e-009 -7.4172e-010 1.42894e-009 2.90554 0.965183 0.102902 1.71166e-009 -7.4172e-010 1.42894e-009 10.2786 0.731801 0.0259123 1.71164e-009 -7.41723e-010 1.42895e-009 2.22167 -0.733487 -0.20892 -1.14787e-013 5.97665e-012 -1.65936e-013 -37.0757 35.6459 -54.7329 17.2196 -9.87155 -32.2921 1.12003 28.5924 -4.39324 -5.4469e-010 -6.98017e-010 7.3661e-010 -9.24884e-010 -1.19715e-009 1.28478e-009 -5.44695e-010 -6.98019e-010 7.36623e-010 -7.73091 5.47488 -0.417314 -5.44688e-010 -6.98019e-010 7.36604e-010 -2.90554 0.965183 -0.102902 -5.44697e-010 -6.98018e-010 7.36606e-010 -10.2786 0.731801 -0.0259123 -5.44687e-010 -6.98014e-010 7.36601e-010 -2.22167 -0.733487 0.20892 -2.03217e-016 0 -3.88251e-019 -24.8836 -40.7904 -14.484 -0.875691 64.9503 3.48891 2.92485 5.33172 -3.12279 2.03217e-016 0 3.88251e-019 15.8274 -39.2762 7.16218 0.651796 59.9579 -2.93936 -3.24801 6.73669 6.20071 
30.9616 46.366 27.7681 24.8323 -2.6102 93.7465 -4.6791 47.4616 2.11184 0.0543597 -3.34682 -1.06151 -9.93254 6.61402 -7.55797 31.0326 18.2519 -22.5566 -0 0 0 -0 0 0 -9.00465e-014 5.50912e-012 -1.99969e-013 50.7728 33.3319 46.3447 -19.1873 -12.0229 36.7417 -0.7062 23.1557 3.44598 1.19765e-009 -4.2244e-010 1.32809e-009 2.09175e-009 -7.38358e-010 2.27165e-009 1.19765e-009 -4.22436e-010 1.32807e-009 7.73091 5.47488 0.417314 1.19765e-009 -4.22437e-010 1.32809e-009 2.90554 0.965183 0.102902 1.19766e-009 -4.22438e-010 1.32809e-009 10.2786 0.731801 0.0259123 1.19765e-009 -4.2244e-010 1.3281e-009 2.22167 -0.733487 -0.20892 -9.01795e-014 5.50912e-012 -2.00305e-013 -37.5655 35.3678 -54.573 17.1832 -9.83454 -32.2129 1.14899 28.9223 -4.45367 -2.72075e-010 -4.34646e-010 9.5063e-010 -4.4882e-010 -7.38504e-010 1.64786e-009 -2.72081e-010 -4.3465e-010 9.50641e-010 -7.73091 5.47488 -0.417314 -2.72074e-010 -4.34648e-010 9.50623e-010 -2.90554 0.965183 -0.102902 -2.72081e-010 -4.34646e-010 9.50625e-010 -10.2786 0.731801 -0.0259123 -2.72072e-010 -4.34642e-010 9.5062e-010 -2.22167 -0.733487 0.20892 -2.03217e-016 0 -3.88251e-019 -24.8031 -40.7881 -14.4185 -0.875736 64.926 3.48851 2.93395 5.31625 -3.18556 2.03217e-016 0 3.88251e-019 15.8967 -39.2705 7.18919 0.65569 59.9451 -2.94241 -3.25956 6.68961 6.3064 
30.9736 46.354 27.7839 24.8245 -2.50694 93.8049 -4.57247 47.4306 1.88469 0.299123 -3.20486 -1.11023 -10.1795 6.38731 -7.48571 30.8109 18.3403 -22.2695 -0 0 0 -0 0 0 -5.88176e-014 4.52405e-012 -2.17095e-013 50.1246 33.5892 46.8977 -19.1544 -11.9842 36.6644 -0.705065 23.1384 3.4431 6.25242e-010 -4.86639e-011 1.18628e-009 1.10044e-009 -8.92585e-011 2.03822e-009 6.25245e-010 -4.86631e-011 1.18627e-009 7.73091 5.47488 0.417314 6.25242e-010 -4.86637e-011 1.18629e-009 2.90554 0.965183 0.102902 6.25251e-010 -4.86646e-011 1.18628e-009 10.2786 0.731801 0.0259123 6.25238e-010 -4.86656e-011 1.18629e-009 2.22167 -0.733487 -0.20892 -5.88916e-014 4.52404e-012 -2.17396e-013 -38.2234 34.9371 -54.2786 17.1584 -9.8094 -32.1585 1.18109 29.2812 -4.51987 -2.42243e-011 -1.69611e-010 1.09923e-009 -1.68988e-011 -2.77767e-010 1.89851e-009 -2.42307e-011 -1.69615e-010 1.09924e-009 -7.73091 5.47488 -0.417314 -2.42236e-011 -1.69613e-010 1.09923e-009 -2.90554 0.965183 -0.102902 -2.42293e-011 -1.69612e-010 1.09923e-009 -10.2786 0.731801 -0.0259123 -2.42226e-011 -1.69608e-010 1.09923e-009 -2.22167 -0.733487 0.20892 -2.03217e-016 0 -3.88251e-019 -24.6169 -40.8167 -14.3105 -0.87485 64.8942 3.48839 2.94105 5.30012 -3.22663 2.03217e-016 0 3.88251e-019 16.0974 -39.2705 7.27608 0.662832 59.9521 -2.94844 -3.28254 6.58686 6.52101 
